<svg width="415" height="330" viewBox="0 0 415 330" fill="none" xmlns="http://www.w3.org/2000/svg">
<path d="M1.70776 314V15C1.70776 6.71573 8.42349 0 16.7078 0H399.708C407.992 0 414.708 6.71574 414.708 15V314C414.708 322.284 407.992 329 399.708 329H16.7078C8.42349 329 1.70776 322.284 1.70776 314Z" fill="#6930C3"/>
<path d="M240.083 239.658C226.639 224.788 226.639 203.212 240.083 188.342C254.963 171.886 282.037 171.886 296.917 188.342C310.361 203.212 310.361 224.788 296.917 239.658C282.037 256.114 254.963 256.114 240.083 239.658Z" fill="#8850E0" fill-opacity="0.15"/>
<path d="M292.5 115C231.414 52.0747 268 0 268 0H394.999C406.045 0 414.999 8.95431 414.999 20V139C414.999 139 345.195 169.281 292.5 115Z" fill="#8850E0" fill-opacity="0.25"/>
<path d="M115.417 206.445C51.8664 146.009 0.052471 171.63 0.052471 171.63L1.47698 310.122C1.59059 321.167 10.6365 330.028 21.6816 329.915L143.175 328.665C143.175 328.665 170.237 258.579 115.417 206.445Z" fill="#8850E0" fill-opacity="0.25"/>
</svg>
