<svg width="357" height="259" viewBox="0 0 357 259" fill="none" xmlns="http://www.w3.org/2000/svg">
<path d="M0 243.5V15C0 6.71573 6.71573 0 15 0H342C350.284 0 357 6.71573 357 15V243.5C357 251.784 350.284 258.5 342 258.5H15C6.71573 258.5 0 251.784 0 243.5Z" fill="#7133FF"/>
<path d="M17 200V259H44V200C44 194.477 39.5228 190 34 190H27C21.4772 190 17 194.477 17 200Z" fill="#A681FD" fill-opacity="0.62"/>
<path d="M80 182V259H107V182C107 176.477 102.523 172 97 172H90C84.4772 172 80 176.477 80 182Z" fill="#A681FD" fill-opacity="0.62"/>
<path d="M142 155V258H169V155C169 149.477 164.523 145 159 145H152C146.477 145 142 149.477 142 155Z" fill="#A681FD" fill-opacity="0.62"/>
<path d="M203 199V258H230V199C230 193.477 225.523 189 220 189H213C207.477 189 203 193.477 203 199Z" fill="#A681FD" fill-opacity="0.62"/>
<path d="M262 155V258H289V155C289 149.477 284.523 145 279 145H272C266.477 145 262 149.477 262 155Z" fill="#A681FD" fill-opacity="0.62"/>
<path d="M321 108V259H348V108C348 102.477 343.523 98 338 98H331C325.477 98 321 102.477 321 108Z" fill="#A681FD" fill-opacity="0.62"/>
</svg>
