<svg width="370" height="259" viewBox="0 0 370 259" fill="none" xmlns="http://www.w3.org/2000/svg">
<path d="M13 243.5V15C13 6.71573 19.7157 0 28 0H355C363.284 0 370 6.71573 370 15V243.5C370 251.784 363.284 258.5 355 258.5H28C19.7157 258.5 13 251.784 13 243.5Z" fill="#4F7BFF"/>
<path d="M63.112 159.551L14.6199 235.963C8.28216 245.949 15.4569 259 27.2848 259H355C363.284 259 370 252.284 370 244V148.608C370 145.296 368.904 142.077 366.882 139.453L327.884 88.839C325.629 85.9116 321.086 86.3583 319.444 89.669L283.375 162.39C279.253 170.7 268.653 173.314 261.14 167.874L208.04 129.425C205.807 127.809 202.687 128.304 201.065 130.533L150.948 199.393C146.034 206.144 136.552 207.583 129.856 202.593L70.3216 158.221C67.9891 156.483 64.6707 157.095 63.112 159.551Z" fill="#82A1FC" fill-opacity="0.6"/>
</svg>
